<?xml version="1.0" encoding="UTF-8" standalone="no"?>
<!DOCTYPE svg PUBLIC "-//W3C//DTD SVG 1.1//EN"
 "http://www.w3.org/Graphics/SVG/1.1/DTD/svg11.dtd">
<!-- Generated by graphviz version 2.40.1 (20161225.0304)
 -->
<!-- Title: controllers_diagram Pages: 1 -->
<svg width="1331pt" height="1255pt"
 viewBox="0.00 0.00 1331.00 1255.00" xmlns="http://www.w3.org/2000/svg" xmlns:xlink="http://www.w3.org/1999/xlink">
<g id="graph0" class="graph" transform="scale(1 1) rotate(0) translate(4 1251)">
<title>controllers_diagram</title>
<polygon fill="transparent" stroke="transparent" points="-4,4 -4,-1251 1327,-1251 1327,4 -4,4"/>
<!-- ItemsController -->
<g id="node1" class="node">
<title>ItemsController</title>
<path fill="none" stroke="#000000" d="M78,-154.5C78,-154.5 157,-154.5 157,-154.5 163,-154.5 169,-160.5 169,-166.5 169,-166.5 169,-385.5 169,-385.5 169,-391.5 163,-397.5 157,-397.5 157,-397.5 78,-397.5 78,-397.5 72,-397.5 66,-391.5 66,-385.5 66,-385.5 66,-166.5 66,-166.5 66,-160.5 72,-154.5 78,-154.5"/>
<text text-anchor="middle" x="117.5" y="-382.3" font-family="Times,serif" font-size="14.00" fill="#000000">ItemsController</text>
<polyline fill="none" stroke="#000000" points="66,-374.5 169,-374.5 "/>
<text text-anchor="start" x="74" y="-359.3" font-family="Times,serif" font-size="14.00" fill="#000000">create</text>
<text text-anchor="start" x="74" y="-344.3" font-family="Times,serif" font-size="14.00" fill="#000000">destroy</text>
<text text-anchor="start" x="74" y="-329.3" font-family="Times,serif" font-size="14.00" fill="#000000">edit</text>
<text text-anchor="start" x="74" y="-314.3" font-family="Times,serif" font-size="14.00" fill="#000000">expensive</text>
<text text-anchor="start" x="74" y="-299.3" font-family="Times,serif" font-size="14.00" fill="#000000">index</text>
<text text-anchor="start" x="74" y="-284.3" font-family="Times,serif" font-size="14.00" fill="#000000">new</text>
<text text-anchor="start" x="74" y="-269.3" font-family="Times,serif" font-size="14.00" fill="#000000">show</text>
<text text-anchor="start" x="74" y="-254.3" font-family="Times,serif" font-size="14.00" fill="#000000">update</text>
<text text-anchor="start" x="74" y="-239.3" font-family="Times,serif" font-size="14.00" fill="#000000">upvote</text>
<polyline fill="none" stroke="#000000" points="66,-231.5 169,-231.5 "/>
<polyline fill="none" stroke="#000000" points="66,-207.5 169,-207.5 "/>
<text text-anchor="start" x="74" y="-192.3" font-family="Times,serif" font-size="14.00" fill="#000000">_layout</text>
<text text-anchor="start" x="74" y="-177.3" font-family="Times,serif" font-size="14.00" fill="#000000">find_item</text>
<text text-anchor="start" x="74" y="-162.3" font-family="Times,serif" font-size="14.00" fill="#000000">item_params</text>
</g>
<!-- AdminController -->
<g id="node2" class="node">
<title>AdminController</title>
<path fill="none" stroke="#000000" d="M716,-.5C716,-.5 802,-.5 802,-.5 808,-.5 814,-6.5 814,-12.5 814,-12.5 814,-81.5 814,-81.5 814,-87.5 808,-93.5 802,-93.5 802,-93.5 716,-93.5 716,-93.5 710,-93.5 704,-87.5 704,-81.5 704,-81.5 704,-12.5 704,-12.5 704,-6.5 710,-.5 716,-.5"/>
<text text-anchor="middle" x="759" y="-78.3" font-family="Times,serif" font-size="14.00" fill="#000000">AdminController</text>
<polyline fill="none" stroke="#000000" points="704,-70.5 814,-70.5 "/>
<text text-anchor="start" x="712" y="-55.3" font-family="Times,serif" font-size="14.00" fill="#000000">users_count</text>
<polyline fill="none" stroke="#000000" points="704,-47.5 814,-47.5 "/>
<polyline fill="none" stroke="#000000" points="704,-23.5 814,-23.5 "/>
<text text-anchor="start" x="712" y="-8.3" font-family="Times,serif" font-size="14.00" fill="#000000">_layout</text>
</g>
<!-- ApplicationController -->
<g id="node3" class="node">
<title>ApplicationController</title>
<path fill="none" stroke="#000000" d="M1090,-418.5C1090,-418.5 1202,-418.5 1202,-418.5 1208,-418.5 1214,-424.5 1214,-430.5 1214,-430.5 1214,-545.5 1214,-545.5 1214,-551.5 1208,-557.5 1202,-557.5 1202,-557.5 1090,-557.5 1090,-557.5 1084,-557.5 1078,-551.5 1078,-545.5 1078,-545.5 1078,-430.5 1078,-430.5 1078,-424.5 1084,-418.5 1090,-418.5"/>
<text text-anchor="middle" x="1146" y="-542.3" font-family="Times,serif" font-size="14.00" fill="#000000">ApplicationController</text>
<polyline fill="none" stroke="#000000" points="1078,-534.5 1214,-534.5 "/>
<polyline fill="none" stroke="#000000" points="1078,-510.5 1214,-510.5 "/>
<polyline fill="none" stroke="#000000" points="1078,-486.5 1214,-486.5 "/>
<text text-anchor="start" x="1086" y="-471.3" font-family="Times,serif" font-size="14.00" fill="#000000">_layout</text>
<text text-anchor="start" x="1086" y="-456.3" font-family="Times,serif" font-size="14.00" fill="#000000">check_if_admin</text>
<text text-anchor="start" x="1086" y="-441.3" font-family="Times,serif" font-size="14.00" fill="#000000">render_403</text>
<text text-anchor="start" x="1086" y="-426.3" font-family="Times,serif" font-size="14.00" fill="#000000">render_404</text>
</g>
<!-- UsersController -->
<g id="node4" class="node">
<title>UsersController</title>
<path fill="none" stroke="#000000" d="M562,-.5C562,-.5 641,-.5 641,-.5 647,-.5 653,-6.5 653,-12.5 653,-12.5 653,-82.5 653,-82.5 653,-88.5 647,-94.5 641,-94.5 641,-94.5 562,-94.5 562,-94.5 556,-94.5 550,-88.5 550,-82.5 550,-82.5 550,-12.5 550,-12.5 550,-6.5 556,-.5 562,-.5"/>
<text text-anchor="middle" x="601.5" y="-79.3" font-family="Times,serif" font-size="14.00" fill="#000000">UsersController</text>
<polyline fill="none" stroke="#000000" points="550,-71.5 653,-71.5 "/>
<polyline fill="none" stroke="#000000" points="550,-47.5 653,-47.5 "/>
<polyline fill="none" stroke="#000000" points="550,-23.5 653,-23.5 "/>
<text text-anchor="start" x="558" y="-8.3" font-family="Times,serif" font-size="14.00" fill="#000000">_layout</text>
</g>
<!-- ActiveStorage::BaseController -->
<g id="node5" class="node">
<title>ActiveStorage::BaseController</title>
<path fill="none" stroke="#000000" d="M78,-902.5C78,-902.5 237,-902.5 237,-902.5 243,-902.5 249,-908.5 249,-914.5 249,-914.5 249,-984.5 249,-984.5 249,-990.5 243,-996.5 237,-996.5 237,-996.5 78,-996.5 78,-996.5 72,-996.5 66,-990.5 66,-984.5 66,-984.5 66,-914.5 66,-914.5 66,-908.5 72,-902.5 78,-902.5"/>
<text text-anchor="middle" x="157.5" y="-981.3" font-family="Times,serif" font-size="14.00" fill="#000000">ActiveStorage::BaseController</text>
<polyline fill="none" stroke="#000000" points="66,-973.5 249,-973.5 "/>
<polyline fill="none" stroke="#000000" points="66,-949.5 249,-949.5 "/>
<polyline fill="none" stroke="#000000" points="66,-925.5 249,-925.5 "/>
<text text-anchor="start" x="74" y="-910.3" font-family="Times,serif" font-size="14.00" fill="#000000">_layout</text>
</g>
<!-- ActiveStorage::DirectUploadsController -->
<g id="node6" class="node">
<title>ActiveStorage::DirectUploadsController</title>
<path fill="none" stroke="#000000" d="M1046,-1056.5C1046,-1056.5 1258,-1056.5 1258,-1056.5 1264,-1056.5 1270,-1062.5 1270,-1068.5 1270,-1068.5 1270,-1167.5 1270,-1167.5 1270,-1173.5 1264,-1179.5 1258,-1179.5 1258,-1179.5 1046,-1179.5 1046,-1179.5 1040,-1179.5 1034,-1173.5 1034,-1167.5 1034,-1167.5 1034,-1068.5 1034,-1068.5 1034,-1062.5 1040,-1056.5 1046,-1056.5"/>
<text text-anchor="middle" x="1152" y="-1164.3" font-family="Times,serif" font-size="14.00" fill="#000000">ActiveStorage::DirectUploadsController</text>
<polyline fill="none" stroke="#000000" points="1034,-1156.5 1270,-1156.5 "/>
<text text-anchor="start" x="1042" y="-1141.3" font-family="Times,serif" font-size="14.00" fill="#000000">create</text>
<polyline fill="none" stroke="#000000" points="1034,-1133.5 1270,-1133.5 "/>
<polyline fill="none" stroke="#000000" points="1034,-1109.5 1270,-1109.5 "/>
<text text-anchor="start" x="1042" y="-1094.3" font-family="Times,serif" font-size="14.00" fill="#000000">_layout</text>
<text text-anchor="start" x="1042" y="-1079.3" font-family="Times,serif" font-size="14.00" fill="#000000">blob_args</text>
<text text-anchor="start" x="1042" y="-1064.3" font-family="Times,serif" font-size="14.00" fill="#000000">direct_upload_json</text>
</g>
<!-- ActiveStorage::RepresentationsController -->
<g id="node7" class="node">
<title>ActiveStorage::RepresentationsController</title>
<path fill="none" stroke="#000000" d="M232,-110.5C232,-110.5 451,-110.5 451,-110.5 457,-110.5 463,-116.5 463,-122.5 463,-122.5 463,-191.5 463,-191.5 463,-197.5 457,-203.5 451,-203.5 451,-203.5 232,-203.5 232,-203.5 226,-203.5 220,-197.5 220,-191.5 220,-191.5 220,-122.5 220,-122.5 220,-116.5 226,-110.5 232,-110.5"/>
<text text-anchor="middle" x="341.5" y="-188.3" font-family="Times,serif" font-size="14.00" fill="#000000">ActiveStorage::RepresentationsController</text>
<polyline fill="none" stroke="#000000" points="220,-180.5 463,-180.5 "/>
<text text-anchor="start" x="228" y="-165.3" font-family="Times,serif" font-size="14.00" fill="#000000">show</text>
<polyline fill="none" stroke="#000000" points="220,-157.5 463,-157.5 "/>
<polyline fill="none" stroke="#000000" points="220,-133.5 463,-133.5 "/>
<text text-anchor="start" x="228" y="-118.3" font-family="Times,serif" font-size="14.00" fill="#000000">_layout</text>
</g>
<!-- ActiveStorage::DiskController -->
<g id="node8" class="node">
<title>ActiveStorage::DiskController</title>
<path fill="none" stroke="#000000" d="M826,-1056.5C826,-1056.5 984,-1056.5 984,-1056.5 990,-1056.5 996,-1062.5 996,-1068.5 996,-1068.5 996,-1227.5 996,-1227.5 996,-1233.5 990,-1239.5 984,-1239.5 984,-1239.5 826,-1239.5 826,-1239.5 820,-1239.5 814,-1233.5 814,-1227.5 814,-1227.5 814,-1068.5 814,-1068.5 814,-1062.5 820,-1056.5 826,-1056.5"/>
<text text-anchor="middle" x="905" y="-1224.3" font-family="Times,serif" font-size="14.00" fill="#000000">ActiveStorage::DiskController</text>
<polyline fill="none" stroke="#000000" points="814,-1216.5 996,-1216.5 "/>
<text text-anchor="start" x="822" y="-1201.3" font-family="Times,serif" font-size="14.00" fill="#000000">show</text>
<text text-anchor="start" x="822" y="-1186.3" font-family="Times,serif" font-size="14.00" fill="#000000">update</text>
<polyline fill="none" stroke="#000000" points="814,-1178.5 996,-1178.5 "/>
<polyline fill="none" stroke="#000000" points="814,-1154.5 996,-1154.5 "/>
<text text-anchor="start" x="822" y="-1139.3" font-family="Times,serif" font-size="14.00" fill="#000000">_layout</text>
<text text-anchor="start" x="822" y="-1124.3" font-family="Times,serif" font-size="14.00" fill="#000000">acceptable_content?</text>
<text text-anchor="start" x="822" y="-1109.3" font-family="Times,serif" font-size="14.00" fill="#000000">decode_verified_key</text>
<text text-anchor="start" x="822" y="-1094.3" font-family="Times,serif" font-size="14.00" fill="#000000">decode_verified_token</text>
<text text-anchor="start" x="822" y="-1079.3" font-family="Times,serif" font-size="14.00" fill="#000000">disk_service</text>
<text text-anchor="start" x="822" y="-1064.3" font-family="Times,serif" font-size="14.00" fill="#000000">serve_file</text>
</g>
<!-- ActiveStorage::BlobsController -->
<g id="node9" class="node">
<title>ActiveStorage::BlobsController</title>
<path fill="none" stroke="#000000" d="M12,-22.5C12,-22.5 176,-22.5 176,-22.5 182,-22.5 188,-28.5 188,-34.5 188,-34.5 188,-103.5 188,-103.5 188,-109.5 182,-115.5 176,-115.5 176,-115.5 12,-115.5 12,-115.5 6,-115.5 0,-109.5 0,-103.5 0,-103.5 0,-34.5 0,-34.5 0,-28.5 6,-22.5 12,-22.5"/>
<text text-anchor="middle" x="94" y="-100.3" font-family="Times,serif" font-size="14.00" fill="#000000">ActiveStorage::BlobsController</text>
<polyline fill="none" stroke="#000000" points="0,-92.5 188,-92.5 "/>
<text text-anchor="start" x="8" y="-77.3" font-family="Times,serif" font-size="14.00" fill="#000000">show</text>
<polyline fill="none" stroke="#000000" points="0,-69.5 188,-69.5 "/>
<polyline fill="none" stroke="#000000" points="0,-45.5 188,-45.5 "/>
<text text-anchor="start" x="8" y="-30.3" font-family="Times,serif" font-size="14.00" fill="#000000">_layout</text>
</g>
<!-- Rails::Conductor::BaseController -->
<g id="node10" class="node">
<title>Rails::Conductor::BaseController</title>
<path fill="none" stroke="#000000" d="M1090,-264.5C1090,-264.5 1264,-264.5 1264,-264.5 1270,-264.5 1276,-270.5 1276,-276.5 1276,-276.5 1276,-361.5 1276,-361.5 1276,-367.5 1270,-373.5 1264,-373.5 1264,-373.5 1090,-373.5 1090,-373.5 1084,-373.5 1078,-367.5 1078,-361.5 1078,-361.5 1078,-276.5 1078,-276.5 1078,-270.5 1084,-264.5 1090,-264.5"/>
<text text-anchor="middle" x="1177" y="-358.3" font-family="Times,serif" font-size="14.00" fill="#000000">Rails::Conductor::BaseController</text>
<polyline fill="none" stroke="#000000" points="1078,-350.5 1276,-350.5 "/>
<polyline fill="none" stroke="#000000" points="1078,-326.5 1276,-326.5 "/>
<polyline fill="none" stroke="#000000" points="1078,-302.5 1276,-302.5 "/>
<text text-anchor="start" x="1086" y="-287.3" font-family="Times,serif" font-size="14.00" fill="#000000">_layout</text>
<text text-anchor="start" x="1086" y="-272.3" font-family="Times,serif" font-size="14.00" fill="#000000">ensure_development_env</text>
</g>
<!-- Rails::Conductor::ActionMailbox::InboundEmailsController -->
<g id="node11" class="node">
<title>Rails::Conductor::ActionMailbox::InboundEmailsController</title>
<path fill="none" stroke="#000000" d="M298,-836.5C298,-836.5 620,-836.5 620,-836.5 626,-836.5 632,-842.5 632,-848.5 632,-848.5 632,-992.5 632,-992.5 632,-998.5 626,-1004.5 620,-1004.5 620,-1004.5 298,-1004.5 298,-1004.5 292,-1004.5 286,-998.5 286,-992.5 286,-992.5 286,-848.5 286,-848.5 286,-842.5 292,-836.5 298,-836.5"/>
<text text-anchor="middle" x="459" y="-989.3" font-family="Times,serif" font-size="14.00" fill="#000000">Rails::Conductor::ActionMailbox::InboundEmailsController</text>
<polyline fill="none" stroke="#000000" points="286,-981.5 632,-981.5 "/>
<text text-anchor="start" x="294" y="-966.3" font-family="Times,serif" font-size="14.00" fill="#000000">create</text>
<text text-anchor="start" x="294" y="-951.3" font-family="Times,serif" font-size="14.00" fill="#000000">index</text>
<text text-anchor="start" x="294" y="-936.3" font-family="Times,serif" font-size="14.00" fill="#000000">new</text>
<text text-anchor="start" x="294" y="-921.3" font-family="Times,serif" font-size="14.00" fill="#000000">show</text>
<polyline fill="none" stroke="#000000" points="286,-913.5 632,-913.5 "/>
<polyline fill="none" stroke="#000000" points="286,-889.5 632,-889.5 "/>
<text text-anchor="start" x="294" y="-874.3" font-family="Times,serif" font-size="14.00" fill="#000000">_layout</text>
<text text-anchor="start" x="294" y="-859.3" font-family="Times,serif" font-size="14.00" fill="#000000">create_inbound_email</text>
<text text-anchor="start" x="294" y="-844.3" font-family="Times,serif" font-size="14.00" fill="#000000">new_mail</text>
</g>
<!-- Rails::Conductor::ActionMailbox::ReroutesController -->
<g id="node12" class="node">
<title>Rails::Conductor::ActionMailbox::ReroutesController</title>
<path fill="none" stroke="#000000" d="M1024,-110.5C1024,-110.5 1311,-110.5 1311,-110.5 1317,-110.5 1323,-116.5 1323,-122.5 1323,-122.5 1323,-206.5 1323,-206.5 1323,-212.5 1317,-218.5 1311,-218.5 1311,-218.5 1024,-218.5 1024,-218.5 1018,-218.5 1012,-212.5 1012,-206.5 1012,-206.5 1012,-122.5 1012,-122.5 1012,-116.5 1018,-110.5 1024,-110.5"/>
<text text-anchor="middle" x="1167.5" y="-203.3" font-family="Times,serif" font-size="14.00" fill="#000000">Rails::Conductor::ActionMailbox::ReroutesController</text>
<polyline fill="none" stroke="#000000" points="1012,-195.5 1323,-195.5 "/>
<text text-anchor="start" x="1020" y="-180.3" font-family="Times,serif" font-size="14.00" fill="#000000">create</text>
<polyline fill="none" stroke="#000000" points="1012,-172.5 1323,-172.5 "/>
<polyline fill="none" stroke="#000000" points="1012,-148.5 1323,-148.5 "/>
<text text-anchor="start" x="1020" y="-133.3" font-family="Times,serif" font-size="14.00" fill="#000000">_layout</text>
<text text-anchor="start" x="1020" y="-118.3" font-family="Times,serif" font-size="14.00" fill="#000000">reroute</text>
</g>
<!-- ActionMailbox::BaseController -->
<g id="node13" class="node">
<title>ActionMailbox::BaseController</title>
<path fill="none" stroke="#000000" d="M342,-1056.5C342,-1056.5 507,-1056.5 507,-1056.5 513,-1056.5 519,-1062.5 519,-1068.5 519,-1068.5 519,-1198.5 519,-1198.5 519,-1204.5 513,-1210.5 507,-1210.5 507,-1210.5 342,-1210.5 342,-1210.5 336,-1210.5 330,-1204.5 330,-1198.5 330,-1198.5 330,-1068.5 330,-1068.5 330,-1062.5 336,-1056.5 342,-1056.5"/>
<text text-anchor="middle" x="424.5" y="-1195.3" font-family="Times,serif" font-size="14.00" fill="#000000">ActionMailbox::BaseController</text>
<polyline fill="none" stroke="#000000" points="330,-1187.5 519,-1187.5 "/>
<polyline fill="none" stroke="#000000" points="330,-1163.5 519,-1163.5 "/>
<polyline fill="none" stroke="#000000" points="330,-1139.5 519,-1139.5 "/>
<text text-anchor="start" x="338" y="-1124.3" font-family="Times,serif" font-size="14.00" fill="#000000">_layout</text>
<text text-anchor="start" x="338" y="-1109.3" font-family="Times,serif" font-size="14.00" fill="#000000">authenticate_by_password</text>
<text text-anchor="start" x="338" y="-1094.3" font-family="Times,serif" font-size="14.00" fill="#000000">ensure_configured</text>
<text text-anchor="start" x="338" y="-1079.3" font-family="Times,serif" font-size="14.00" fill="#000000">ingress_name</text>
<text text-anchor="start" x="338" y="-1064.3" font-family="Times,serif" font-size="14.00" fill="#000000">password</text>
</g>
<!-- ActionMailbox::Ingresses::Mailgun::InboundEmailsController -->
<g id="node14" class="node">
<title>ActionMailbox::Ingresses::Mailgun::InboundEmailsController</title>
<path fill="none" stroke="#000000" d="M694,-264.5C694,-264.5 1028,-264.5 1028,-264.5 1034,-264.5 1040,-270.5 1040,-276.5 1040,-276.5 1040,-390.5 1040,-390.5 1040,-396.5 1034,-402.5 1028,-402.5 1028,-402.5 694,-402.5 694,-402.5 688,-402.5 682,-396.5 682,-390.5 682,-390.5 682,-276.5 682,-276.5 682,-270.5 688,-264.5 694,-264.5"/>
<text text-anchor="middle" x="861" y="-387.3" font-family="Times,serif" font-size="14.00" fill="#000000">ActionMailbox::Ingresses::Mailgun::InboundEmailsController</text>
<polyline fill="none" stroke="#000000" points="682,-379.5 1040,-379.5 "/>
<text text-anchor="start" x="690" y="-364.3" font-family="Times,serif" font-size="14.00" fill="#000000">create</text>
<polyline fill="none" stroke="#000000" points="682,-356.5 1040,-356.5 "/>
<polyline fill="none" stroke="#000000" points="682,-332.5 1040,-332.5 "/>
<text text-anchor="start" x="690" y="-317.3" font-family="Times,serif" font-size="14.00" fill="#000000">_layout</text>
<text text-anchor="start" x="690" y="-302.3" font-family="Times,serif" font-size="14.00" fill="#000000">authenticate</text>
<text text-anchor="start" x="690" y="-287.3" font-family="Times,serif" font-size="14.00" fill="#000000">authenticated?</text>
<text text-anchor="start" x="690" y="-272.3" font-family="Times,serif" font-size="14.00" fill="#000000">key</text>
</g>
<!-- ActionMailbox::Ingresses::Postmark::InboundEmailsController -->
<g id="node15" class="node">
<title>ActionMailbox::Ingresses::Postmark::InboundEmailsController</title>
<path fill="none" stroke="#000000" d="M232,-242.5C232,-242.5 571,-242.5 571,-242.5 577,-242.5 583,-248.5 583,-254.5 583,-254.5 583,-323.5 583,-323.5 583,-329.5 577,-335.5 571,-335.5 571,-335.5 232,-335.5 232,-335.5 226,-335.5 220,-329.5 220,-323.5 220,-323.5 220,-254.5 220,-254.5 220,-248.5 226,-242.5 232,-242.5"/>
<text text-anchor="middle" x="401.5" y="-320.3" font-family="Times,serif" font-size="14.00" fill="#000000">ActionMailbox::Ingresses::Postmark::InboundEmailsController</text>
<polyline fill="none" stroke="#000000" points="220,-312.5 583,-312.5 "/>
<text text-anchor="start" x="228" y="-297.3" font-family="Times,serif" font-size="14.00" fill="#000000">create</text>
<polyline fill="none" stroke="#000000" points="220,-289.5 583,-289.5 "/>
<polyline fill="none" stroke="#000000" points="220,-265.5 583,-265.5 "/>
<text text-anchor="start" x="228" y="-250.3" font-family="Times,serif" font-size="14.00" fill="#000000">_layout</text>
</g>
<!-- ActionMailbox::Ingresses::Mandrill::InboundEmailsController -->
<g id="node16" class="node">
<title>ActionMailbox::Ingresses::Mandrill::InboundEmailsController</title>
<path fill="none" stroke="#000000" d="M694,-440.5C694,-440.5 1029,-440.5 1029,-440.5 1035,-440.5 1041,-446.5 1041,-452.5 1041,-452.5 1041,-596.5 1041,-596.5 1041,-602.5 1035,-608.5 1029,-608.5 1029,-608.5 694,-608.5 694,-608.5 688,-608.5 682,-602.5 682,-596.5 682,-596.5 682,-452.5 682,-452.5 682,-446.5 688,-440.5 694,-440.5"/>
<text text-anchor="middle" x="861.5" y="-593.3" font-family="Times,serif" font-size="14.00" fill="#000000">ActionMailbox::Ingresses::Mandrill::InboundEmailsController</text>
<polyline fill="none" stroke="#000000" points="682,-585.5 1041,-585.5 "/>
<text text-anchor="start" x="690" y="-570.3" font-family="Times,serif" font-size="14.00" fill="#000000">create</text>
<polyline fill="none" stroke="#000000" points="682,-562.5 1041,-562.5 "/>
<polyline fill="none" stroke="#000000" points="682,-538.5 1041,-538.5 "/>
<text text-anchor="start" x="690" y="-523.3" font-family="Times,serif" font-size="14.00" fill="#000000">_layout</text>
<text text-anchor="start" x="690" y="-508.3" font-family="Times,serif" font-size="14.00" fill="#000000">authenticate</text>
<text text-anchor="start" x="690" y="-493.3" font-family="Times,serif" font-size="14.00" fill="#000000">authenticated?</text>
<text text-anchor="start" x="690" y="-478.3" font-family="Times,serif" font-size="14.00" fill="#000000">events</text>
<text text-anchor="start" x="690" y="-463.3" font-family="Times,serif" font-size="14.00" fill="#000000">key</text>
<text text-anchor="start" x="690" y="-448.3" font-family="Times,serif" font-size="14.00" fill="#000000">raw_emails</text>
</g>
<!-- ActionMailbox::Ingresses::Relay::InboundEmailsController -->
<g id="node17" class="node">
<title>ActionMailbox::Ingresses::Relay::InboundEmailsController</title>
<path fill="none" stroke="#000000" d="M936,-902.5C936,-902.5 1255,-902.5 1255,-902.5 1261,-902.5 1267,-908.5 1267,-914.5 1267,-914.5 1267,-998.5 1267,-998.5 1267,-1004.5 1261,-1010.5 1255,-1010.5 1255,-1010.5 936,-1010.5 936,-1010.5 930,-1010.5 924,-1004.5 924,-998.5 924,-998.5 924,-914.5 924,-914.5 924,-908.5 930,-902.5 936,-902.5"/>
<text text-anchor="middle" x="1095.5" y="-995.3" font-family="Times,serif" font-size="14.00" fill="#000000">ActionMailbox::Ingresses::Relay::InboundEmailsController</text>
<polyline fill="none" stroke="#000000" points="924,-987.5 1267,-987.5 "/>
<text text-anchor="start" x="932" y="-972.3" font-family="Times,serif" font-size="14.00" fill="#000000">create</text>
<polyline fill="none" stroke="#000000" points="924,-964.5 1267,-964.5 "/>
<polyline fill="none" stroke="#000000" points="924,-940.5 1267,-940.5 "/>
<text text-anchor="start" x="932" y="-925.3" font-family="Times,serif" font-size="14.00" fill="#000000">_layout</text>
<text text-anchor="start" x="932" y="-910.3" font-family="Times,serif" font-size="14.00" fill="#000000">require_valid_rfc822_message</text>
</g>
<!-- ActionMailbox::Ingresses::Sendgrid::InboundEmailsController -->
<g id="node18" class="node">
<title>ActionMailbox::Ingresses::Sendgrid::InboundEmailsController</title>
<path fill="none" stroke="#000000" d="M628,-132.5C628,-132.5 964,-132.5 964,-132.5 970,-132.5 976,-138.5 976,-144.5 976,-144.5 976,-213.5 976,-213.5 976,-219.5 970,-225.5 964,-225.5 964,-225.5 628,-225.5 628,-225.5 622,-225.5 616,-219.5 616,-213.5 616,-213.5 616,-144.5 616,-144.5 616,-138.5 622,-132.5 628,-132.5"/>
<text text-anchor="middle" x="796" y="-210.3" font-family="Times,serif" font-size="14.00" fill="#000000">ActionMailbox::Ingresses::Sendgrid::InboundEmailsController</text>
<polyline fill="none" stroke="#000000" points="616,-202.5 976,-202.5 "/>
<text text-anchor="start" x="624" y="-187.3" font-family="Times,serif" font-size="14.00" fill="#000000">create</text>
<polyline fill="none" stroke="#000000" points="616,-179.5 976,-179.5 "/>
<polyline fill="none" stroke="#000000" points="616,-155.5 976,-155.5 "/>
<text text-anchor="start" x="624" y="-140.3" font-family="Times,serif" font-size="14.00" fill="#000000">_layout</text>
</g>
<!-- Devise::OmniauthCallbacksController -->
<g id="node19" class="node">
<title>Devise::OmniauthCallbacksController</title>
<path fill="none" stroke="#000000" d="M562,-1056.5C562,-1056.5 763,-1056.5 763,-1056.5 769,-1056.5 775,-1062.5 775,-1068.5 775,-1068.5 775,-1196.5 775,-1196.5 775,-1202.5 769,-1208.5 763,-1208.5 763,-1208.5 562,-1208.5 562,-1208.5 556,-1208.5 550,-1202.5 550,-1196.5 550,-1196.5 550,-1068.5 550,-1068.5 550,-1062.5 556,-1056.5 562,-1056.5"/>
<text text-anchor="middle" x="662.5" y="-1193.3" font-family="Times,serif" font-size="14.00" fill="#000000">Devise::OmniauthCallbacksController</text>
<polyline fill="none" stroke="#000000" points="550,-1185.5 775,-1185.5 "/>
<text text-anchor="start" x="558" y="-1170.3" font-family="Times,serif" font-size="14.00" fill="#000000">failure</text>
<text text-anchor="start" x="558" y="-1155.3" font-family="Times,serif" font-size="14.00" fill="#000000">passthru</text>
<polyline fill="none" stroke="#000000" points="550,-1147.5 775,-1147.5 "/>
<text text-anchor="start" x="558" y="-1132.3" font-family="Times,serif" font-size="14.00" fill="#000000">after_omniauth_failure_path_for</text>
<text text-anchor="start" x="558" y="-1117.3" font-family="Times,serif" font-size="14.00" fill="#000000">failed_strategy</text>
<text text-anchor="start" x="558" y="-1102.3" font-family="Times,serif" font-size="14.00" fill="#000000">failure_message</text>
<text text-anchor="start" x="558" y="-1087.3" font-family="Times,serif" font-size="14.00" fill="#000000">translation_scope</text>
<polyline fill="none" stroke="#000000" points="550,-1079.5 775,-1079.5 "/>
<text text-anchor="start" x="558" y="-1064.3" font-family="Times,serif" font-size="14.00" fill="#000000">_layout</text>
</g>
<!-- Devise::RegistrationsController -->
<g id="node20" class="node">
<title>Devise::RegistrationsController</title>
<path fill="none" stroke="#000000" d="M694,-660.5C694,-660.5 867,-660.5 867,-660.5 873,-660.5 879,-666.5 879,-672.5 879,-672.5 879,-995.5 879,-995.5 879,-1001.5 873,-1007.5 867,-1007.5 867,-1007.5 694,-1007.5 694,-1007.5 688,-1007.5 682,-1001.5 682,-995.5 682,-995.5 682,-672.5 682,-672.5 682,-666.5 688,-660.5 694,-660.5"/>
<text text-anchor="middle" x="780.5" y="-992.3" font-family="Times,serif" font-size="14.00" fill="#000000">Devise::RegistrationsController</text>
<polyline fill="none" stroke="#000000" points="682,-984.5 879,-984.5 "/>
<text text-anchor="start" x="690" y="-969.3" font-family="Times,serif" font-size="14.00" fill="#000000">cancel</text>
<text text-anchor="start" x="690" y="-954.3" font-family="Times,serif" font-size="14.00" fill="#000000">create</text>
<text text-anchor="start" x="690" y="-939.3" font-family="Times,serif" font-size="14.00" fill="#000000">destroy</text>
<text text-anchor="start" x="690" y="-924.3" font-family="Times,serif" font-size="14.00" fill="#000000">edit</text>
<text text-anchor="start" x="690" y="-909.3" font-family="Times,serif" font-size="14.00" fill="#000000">new</text>
<text text-anchor="start" x="690" y="-894.3" font-family="Times,serif" font-size="14.00" fill="#000000">update</text>
<polyline fill="none" stroke="#000000" points="682,-886.5 879,-886.5 "/>
<text text-anchor="start" x="690" y="-871.3" font-family="Times,serif" font-size="14.00" fill="#000000">account_update_params</text>
<text text-anchor="start" x="690" y="-856.3" font-family="Times,serif" font-size="14.00" fill="#000000">after_inactive_sign_up_path_for</text>
<text text-anchor="start" x="690" y="-841.3" font-family="Times,serif" font-size="14.00" fill="#000000">after_sign_up_path_for</text>
<text text-anchor="start" x="690" y="-826.3" font-family="Times,serif" font-size="14.00" fill="#000000">after_update_path_for</text>
<text text-anchor="start" x="690" y="-811.3" font-family="Times,serif" font-size="14.00" fill="#000000">authenticate_scope!</text>
<text text-anchor="start" x="690" y="-796.3" font-family="Times,serif" font-size="14.00" fill="#000000">build_resource</text>
<text text-anchor="start" x="690" y="-781.3" font-family="Times,serif" font-size="14.00" fill="#000000">sign_up</text>
<text text-anchor="start" x="690" y="-766.3" font-family="Times,serif" font-size="14.00" fill="#000000">sign_up_params</text>
<text text-anchor="start" x="690" y="-751.3" font-family="Times,serif" font-size="14.00" fill="#000000">translation_scope</text>
<text text-anchor="start" x="690" y="-736.3" font-family="Times,serif" font-size="14.00" fill="#000000">update_needs_confirmation?</text>
<text text-anchor="start" x="690" y="-721.3" font-family="Times,serif" font-size="14.00" fill="#000000">update_resource</text>
<polyline fill="none" stroke="#000000" points="682,-713.5 879,-713.5 "/>
<text text-anchor="start" x="690" y="-698.3" font-family="Times,serif" font-size="14.00" fill="#000000">_layout</text>
<text text-anchor="start" x="690" y="-683.3" font-family="Times,serif" font-size="14.00" fill="#000000">set_flash_message_for_update</text>
<text text-anchor="start" x="690" y="-668.3" font-family="Times,serif" font-size="14.00" fill="#000000">sign_in_after_change_password?</text>
</g>
<!-- Devise::SessionsController -->
<g id="node21" class="node">
<title>Devise::SessionsController</title>
<path fill="none" stroke="#000000" d="M100,-1034.5C100,-1034.5 240,-1034.5 240,-1034.5 246,-1034.5 252,-1040.5 252,-1046.5 252,-1046.5 252,-1234.5 252,-1234.5 252,-1240.5 246,-1246.5 240,-1246.5 240,-1246.5 100,-1246.5 100,-1246.5 94,-1246.5 88,-1240.5 88,-1234.5 88,-1234.5 88,-1046.5 88,-1046.5 88,-1040.5 94,-1034.5 100,-1034.5"/>
<text text-anchor="middle" x="170" y="-1231.3" font-family="Times,serif" font-size="14.00" fill="#000000">Devise::SessionsController</text>
<polyline fill="none" stroke="#000000" points="88,-1223.5 252,-1223.5 "/>
<text text-anchor="start" x="96" y="-1208.3" font-family="Times,serif" font-size="14.00" fill="#000000">create</text>
<text text-anchor="start" x="96" y="-1193.3" font-family="Times,serif" font-size="14.00" fill="#000000">destroy</text>
<text text-anchor="start" x="96" y="-1178.3" font-family="Times,serif" font-size="14.00" fill="#000000">new</text>
<polyline fill="none" stroke="#000000" points="88,-1170.5 252,-1170.5 "/>
<text text-anchor="start" x="96" y="-1155.3" font-family="Times,serif" font-size="14.00" fill="#000000">auth_options</text>
<text text-anchor="start" x="96" y="-1140.3" font-family="Times,serif" font-size="14.00" fill="#000000">serialize_options</text>
<text text-anchor="start" x="96" y="-1125.3" font-family="Times,serif" font-size="14.00" fill="#000000">sign_in_params</text>
<text text-anchor="start" x="96" y="-1110.3" font-family="Times,serif" font-size="14.00" fill="#000000">translation_scope</text>
<polyline fill="none" stroke="#000000" points="88,-1102.5 252,-1102.5 "/>
<text text-anchor="start" x="96" y="-1087.3" font-family="Times,serif" font-size="14.00" fill="#000000">_layout</text>
<text text-anchor="start" x="96" y="-1072.3" font-family="Times,serif" font-size="14.00" fill="#000000">all_signed_out?</text>
<text text-anchor="start" x="96" y="-1057.3" font-family="Times,serif" font-size="14.00" fill="#000000">respond_to_on_destroy</text>
<text text-anchor="start" x="96" y="-1042.3" font-family="Times,serif" font-size="14.00" fill="#000000">verify_signed_out_user</text>
</g>
<!-- Devise::UnlocksController -->
<g id="node22" class="node">
<title>Devise::UnlocksController</title>
<path fill="none" stroke="#000000" d="M144,-440.5C144,-440.5 376,-440.5 376,-440.5 382,-440.5 388,-446.5 388,-452.5 388,-452.5 388,-580.5 388,-580.5 388,-586.5 382,-592.5 376,-592.5 376,-592.5 144,-592.5 144,-592.5 138,-592.5 132,-586.5 132,-580.5 132,-580.5 132,-452.5 132,-452.5 132,-446.5 138,-440.5 144,-440.5"/>
<text text-anchor="middle" x="260" y="-577.3" font-family="Times,serif" font-size="14.00" fill="#000000">Devise::UnlocksController</text>
<polyline fill="none" stroke="#000000" points="132,-569.5 388,-569.5 "/>
<text text-anchor="start" x="140" y="-554.3" font-family="Times,serif" font-size="14.00" fill="#000000">create</text>
<text text-anchor="start" x="140" y="-539.3" font-family="Times,serif" font-size="14.00" fill="#000000">new</text>
<text text-anchor="start" x="140" y="-524.3" font-family="Times,serif" font-size="14.00" fill="#000000">show</text>
<polyline fill="none" stroke="#000000" points="132,-516.5 388,-516.5 "/>
<text text-anchor="start" x="140" y="-501.3" font-family="Times,serif" font-size="14.00" fill="#000000">after_sending_unlock_instructions_path_for</text>
<text text-anchor="start" x="140" y="-486.3" font-family="Times,serif" font-size="14.00" fill="#000000">after_unlock_path_for</text>
<text text-anchor="start" x="140" y="-471.3" font-family="Times,serif" font-size="14.00" fill="#000000">translation_scope</text>
<polyline fill="none" stroke="#000000" points="132,-463.5 388,-463.5 "/>
<text text-anchor="start" x="140" y="-448.3" font-family="Times,serif" font-size="14.00" fill="#000000">_layout</text>
</g>
<!-- Devise::ConfirmationsController -->
<g id="node23" class="node">
<title>Devise::ConfirmationsController</title>
<path fill="none" stroke="#000000" d="M122,-638.5C122,-638.5 398,-638.5 398,-638.5 404,-638.5 410,-644.5 410,-650.5 410,-650.5 410,-778.5 410,-778.5 410,-784.5 404,-790.5 398,-790.5 398,-790.5 122,-790.5 122,-790.5 116,-790.5 110,-784.5 110,-778.5 110,-778.5 110,-650.5 110,-650.5 110,-644.5 116,-638.5 122,-638.5"/>
<text text-anchor="middle" x="260" y="-775.3" font-family="Times,serif" font-size="14.00" fill="#000000">Devise::ConfirmationsController</text>
<polyline fill="none" stroke="#000000" points="110,-767.5 410,-767.5 "/>
<text text-anchor="start" x="118" y="-752.3" font-family="Times,serif" font-size="14.00" fill="#000000">create</text>
<text text-anchor="start" x="118" y="-737.3" font-family="Times,serif" font-size="14.00" fill="#000000">new</text>
<text text-anchor="start" x="118" y="-722.3" font-family="Times,serif" font-size="14.00" fill="#000000">show</text>
<polyline fill="none" stroke="#000000" points="110,-714.5 410,-714.5 "/>
<text text-anchor="start" x="118" y="-699.3" font-family="Times,serif" font-size="14.00" fill="#000000">after_confirmation_path_for</text>
<text text-anchor="start" x="118" y="-684.3" font-family="Times,serif" font-size="14.00" fill="#000000">after_resending_confirmation_instructions_path_for</text>
<text text-anchor="start" x="118" y="-669.3" font-family="Times,serif" font-size="14.00" fill="#000000">translation_scope</text>
<polyline fill="none" stroke="#000000" points="110,-661.5 410,-661.5 "/>
<text text-anchor="start" x="118" y="-646.3" font-family="Times,serif" font-size="14.00" fill="#000000">_layout</text>
</g>
<!-- Devise::PasswordsController -->
<g id="node24" class="node">
<title>Devise::PasswordsController</title>
<path fill="none" stroke="#000000" d="M936,-660.5C936,-660.5 1214,-660.5 1214,-660.5 1220,-660.5 1226,-666.5 1226,-672.5 1226,-672.5 1226,-845.5 1226,-845.5 1226,-851.5 1220,-857.5 1214,-857.5 1214,-857.5 936,-857.5 936,-857.5 930,-857.5 924,-851.5 924,-845.5 924,-845.5 924,-672.5 924,-672.5 924,-666.5 930,-660.5 936,-660.5"/>
<text text-anchor="middle" x="1075" y="-842.3" font-family="Times,serif" font-size="14.00" fill="#000000">Devise::PasswordsController</text>
<polyline fill="none" stroke="#000000" points="924,-834.5 1226,-834.5 "/>
<text text-anchor="start" x="932" y="-819.3" font-family="Times,serif" font-size="14.00" fill="#000000">create</text>
<text text-anchor="start" x="932" y="-804.3" font-family="Times,serif" font-size="14.00" fill="#000000">edit</text>
<text text-anchor="start" x="932" y="-789.3" font-family="Times,serif" font-size="14.00" fill="#000000">new</text>
<text text-anchor="start" x="932" y="-774.3" font-family="Times,serif" font-size="14.00" fill="#000000">update</text>
<polyline fill="none" stroke="#000000" points="924,-766.5 1226,-766.5 "/>
<text text-anchor="start" x="932" y="-751.3" font-family="Times,serif" font-size="14.00" fill="#000000">after_resetting_password_path_for</text>
<text text-anchor="start" x="932" y="-736.3" font-family="Times,serif" font-size="14.00" fill="#000000">after_sending_reset_password_instructions_path_for</text>
<text text-anchor="start" x="932" y="-721.3" font-family="Times,serif" font-size="14.00" fill="#000000">assert_reset_token_passed</text>
<text text-anchor="start" x="932" y="-706.3" font-family="Times,serif" font-size="14.00" fill="#000000">translation_scope</text>
<text text-anchor="start" x="932" y="-691.3" font-family="Times,serif" font-size="14.00" fill="#000000">unlockable?</text>
<polyline fill="none" stroke="#000000" points="924,-683.5 1226,-683.5 "/>
<text text-anchor="start" x="932" y="-668.3" font-family="Times,serif" font-size="14.00" fill="#000000">_layout</text>
</g>
<!-- DeviseController -->
<g id="node25" class="node">
<title>DeviseController</title>
<path fill="none" stroke="#000000" d="M452,-374.5C452,-374.5 619,-374.5 619,-374.5 625,-374.5 631,-380.5 631,-386.5 631,-386.5 631,-754.5 631,-754.5 631,-760.5 625,-766.5 619,-766.5 619,-766.5 452,-766.5 452,-766.5 446,-766.5 440,-760.5 440,-754.5 440,-754.5 440,-386.5 440,-386.5 440,-380.5 446,-374.5 452,-374.5"/>
<text text-anchor="middle" x="535.5" y="-751.3" font-family="Times,serif" font-size="14.00" fill="#000000">DeviseController</text>
<polyline fill="none" stroke="#000000" points="440,-743.5 631,-743.5 "/>
<text text-anchor="start" x="448" y="-728.3" font-family="Times,serif" font-size="14.00" fill="#000000">_prefixes</text>
<polyline fill="none" stroke="#000000" points="440,-720.5 631,-720.5 "/>
<text text-anchor="start" x="448" y="-705.3" font-family="Times,serif" font-size="14.00" fill="#000000">assert_is_devise_resource!</text>
<text text-anchor="start" x="448" y="-690.3" font-family="Times,serif" font-size="14.00" fill="#000000">clean_up_passwords</text>
<text text-anchor="start" x="448" y="-675.3" font-family="Times,serif" font-size="14.00" fill="#000000">devise_i18n_options</text>
<text text-anchor="start" x="448" y="-660.3" font-family="Times,serif" font-size="14.00" fill="#000000">devise_mapping</text>
<text text-anchor="start" x="448" y="-645.3" font-family="Times,serif" font-size="14.00" fill="#000000">find_message</text>
<text text-anchor="start" x="448" y="-630.3" font-family="Times,serif" font-size="14.00" fill="#000000">navigational_formats</text>
<text text-anchor="start" x="448" y="-615.3" font-family="Times,serif" font-size="14.00" fill="#000000">require_no_authentication</text>
<text text-anchor="start" x="448" y="-600.3" font-family="Times,serif" font-size="14.00" fill="#000000">resource</text>
<text text-anchor="start" x="448" y="-585.3" font-family="Times,serif" font-size="14.00" fill="#000000">resource=</text>
<text text-anchor="start" x="448" y="-570.3" font-family="Times,serif" font-size="14.00" fill="#000000">resource_class</text>
<text text-anchor="start" x="448" y="-555.3" font-family="Times,serif" font-size="14.00" fill="#000000">resource_name</text>
<text text-anchor="start" x="448" y="-540.3" font-family="Times,serif" font-size="14.00" fill="#000000">resource_params</text>
<text text-anchor="start" x="448" y="-525.3" font-family="Times,serif" font-size="14.00" fill="#000000">respond_with_navigational</text>
<text text-anchor="start" x="448" y="-510.3" font-family="Times,serif" font-size="14.00" fill="#000000">scope_name</text>
<text text-anchor="start" x="448" y="-495.3" font-family="Times,serif" font-size="14.00" fill="#000000">set_flash_message</text>
<text text-anchor="start" x="448" y="-480.3" font-family="Times,serif" font-size="14.00" fill="#000000">set_flash_message!</text>
<text text-anchor="start" x="448" y="-465.3" font-family="Times,serif" font-size="14.00" fill="#000000">set_minimum_password_length</text>
<text text-anchor="start" x="448" y="-450.3" font-family="Times,serif" font-size="14.00" fill="#000000">signed_in_resource</text>
<text text-anchor="start" x="448" y="-435.3" font-family="Times,serif" font-size="14.00" fill="#000000">successfully_sent?</text>
<text text-anchor="start" x="448" y="-420.3" font-family="Times,serif" font-size="14.00" fill="#000000">translation_scope</text>
<text text-anchor="start" x="448" y="-405.3" font-family="Times,serif" font-size="14.00" fill="#000000">unknown_action!</text>
<polyline fill="none" stroke="#000000" points="440,-397.5 631,-397.5 "/>
<text text-anchor="start" x="448" y="-382.3" font-family="Times,serif" font-size="14.00" fill="#000000">_layout</text>
</g>
</g>
</svg>
