<?xml version="1.0" encoding="UTF-8" standalone="no"?>
<!DOCTYPE svg PUBLIC "-//W3C//DTD SVG 1.1//EN"
 "http://www.w3.org/Graphics/SVG/1.1/DTD/svg11.dtd">
<!-- Generated by graphviz version 2.40.1 (20161225.0304)
 -->
<!-- Title: LearnRailsScreencasts Pages: 1 -->
<svg width="300pt" height="381pt"
 viewBox="0.00 0.00 299.60 380.60" xmlns="http://www.w3.org/2000/svg" xmlns:xlink="http://www.w3.org/1999/xlink">
<g id="graph0" class="graph" transform="scale(1 1) rotate(0) translate(28.8 351.8)">
<title>LearnRailsScreencasts</title>
<polygon fill="#ffffff" stroke="transparent" points="-28.8,28.8 -28.8,-351.8 270.8,-351.8 270.8,28.8 -28.8,28.8"/>
<text text-anchor="middle" x="121" y="-308.6" font-family="Arial Bold" font-size="13.00" fill="#000000">LearnRailsScreencasts domain model</text>
<!-- m_ApplicationRecord -->
<g id="node1" class="node">
<title>m_ApplicationRecord</title>
<path fill="none" stroke="#999999" d="M61,-249.5C61,-249.5 181,-249.5 181,-249.5 187,-249.5 193,-255.5 193,-261.5 193,-261.5 193,-273.5 193,-273.5 193,-279.5 187,-285.5 181,-285.5 181,-285.5 61,-285.5 61,-285.5 55,-285.5 49,-279.5 49,-273.5 49,-273.5 49,-261.5 49,-261.5 49,-255.5 55,-249.5 61,-249.5"/>
<text text-anchor="start" x="69.5" y="-264.7" font-family="Arial Bold" font-size="11.00" fill="#999999">ApplicationRecord</text>
</g>
<!-- m_User -->
<g id="node2" class="node">
<title>m_User</title>
<path fill="none" stroke="#000000" d="M52.5,-.5C52.5,-.5 189.5,-.5 189.5,-.5 195.5,-.5 201.5,-6.5 201.5,-12.5 201.5,-12.5 201.5,-200.5 201.5,-200.5 201.5,-206.5 195.5,-212.5 189.5,-212.5 189.5,-212.5 52.5,-212.5 52.5,-212.5 46.5,-212.5 40.5,-206.5 40.5,-200.5 40.5,-200.5 40.5,-12.5 40.5,-12.5 40.5,-6.5 46.5,-.5 52.5,-.5"/>
<text text-anchor="start" x="106.5" y="-199.7" font-family="Arial Bold" font-size="11.00" fill="#000000">User</text>
<polyline fill="none" stroke="#000000" points="40.5,-192.5 201.5,-192.5 "/>
<text text-anchor="start" x="48" y="-179.5" font-family="Arial" font-size="10.00" fill="#000000">created_at </text>
<text text-anchor="start" x="97" y="-179.5" font-family="Arial Italic" font-size="10.00" fill="#999999">datetime (6,0) ∗</text>
<text text-anchor="start" x="48" y="-166.5" font-family="Arial" font-size="10.00" fill="#000000">current_sign_in_at </text>
<text text-anchor="start" x="131" y="-166.5" font-family="Arial Italic" font-size="10.00" fill="#999999">datetime</text>
<text text-anchor="start" x="48" y="-153.5" font-family="Arial" font-size="10.00" fill="#000000">current_sign_in_ip </text>
<text text-anchor="start" x="130" y="-153.5" font-family="Arial Italic" font-size="10.00" fill="#999999">inet</text>
<text text-anchor="start" x="48" y="-140.5" font-family="Arial" font-size="10.00" fill="#000000">email </text>
<text text-anchor="start" x="75" y="-140.5" font-family="Arial Italic" font-size="10.00" fill="#999999">string ∗ U</text>
<text text-anchor="start" x="48" y="-127.5" font-family="Arial" font-size="10.00" fill="#000000">encrypted_password </text>
<text text-anchor="start" x="141" y="-127.5" font-family="Arial Italic" font-size="10.00" fill="#999999">string ∗</text>
<text text-anchor="start" x="48" y="-114.5" font-family="Arial" font-size="10.00" fill="#000000">id </text>
<text text-anchor="start" x="59" y="-114.5" font-family="Arial Italic" font-size="10.00" fill="#999999">integer (8) PK</text>
<text text-anchor="start" x="48" y="-101.5" font-family="Arial" font-size="10.00" fill="#000000">last_sign_in_at </text>
<text text-anchor="start" x="117" y="-101.5" font-family="Arial Italic" font-size="10.00" fill="#999999">datetime</text>
<text text-anchor="start" x="48" y="-88.5" font-family="Arial" font-size="10.00" fill="#000000">last_sign_in_ip </text>
<text text-anchor="start" x="116" y="-88.5" font-family="Arial Italic" font-size="10.00" fill="#999999">inet</text>
<text text-anchor="start" x="48" y="-75.5" font-family="Arial" font-size="10.00" fill="#000000">login </text>
<text text-anchor="start" x="72" y="-75.5" font-family="Arial Italic" font-size="10.00" fill="#999999">string ∗</text>
<text text-anchor="start" x="48" y="-62.5" font-family="Arial" font-size="10.00" fill="#000000">remember_created_at </text>
<text text-anchor="start" x="146" y="-62.5" font-family="Arial Italic" font-size="10.00" fill="#999999">datetime</text>
<text text-anchor="start" x="48" y="-49.5" font-family="Arial" font-size="10.00" fill="#000000">reset_password_sent_at </text>
<text text-anchor="start" x="157" y="-49.5" font-family="Arial Italic" font-size="10.00" fill="#999999">datetime</text>
<text text-anchor="start" x="48" y="-36.5" font-family="Arial" font-size="10.00" fill="#000000">reset_password_token </text>
<text text-anchor="start" x="149" y="-36.5" font-family="Arial Italic" font-size="10.00" fill="#999999">string</text>
<text text-anchor="start" x="48" y="-23.5" font-family="Arial" font-size="10.00" fill="#000000">sign_in_count </text>
<text text-anchor="start" x="112" y="-23.5" font-family="Arial Italic" font-size="10.00" fill="#999999">integer ∗</text>
<text text-anchor="start" x="48" y="-10.5" font-family="Arial" font-size="10.00" fill="#000000">updated_at </text>
<text text-anchor="start" x="100" y="-10.5" font-family="Arial Italic" font-size="10.00" fill="#999999">datetime (6,0) ∗</text>
</g>
<!-- m_ApplicationRecord&#45;&gt;m_User -->
<g id="edge1" class="edge">
<title>m_ApplicationRecord&#45;&gt;m_User</title>
<path fill="none" stroke="#999999" d="M121,-237.2162C121,-229.8628 121,-221.5787 121,-212.8401"/>
<polygon fill="none" stroke="#999999" points="116.8001,-237.3442 121,-249.3442 125.2001,-237.3443 116.8001,-237.3442"/>
</g>
</g>
</svg>
