<?xml version="1.0" encoding="UTF-8" standalone="no"?>
<!DOCTYPE svg PUBLIC "-//W3C//DTD SVG 1.1//EN"
 "http://www.w3.org/Graphics/SVG/1.1/DTD/svg11.dtd">
<!-- Generated by graphviz version 2.40.1 (20161225.0304)
 -->
<!-- Title: models_diagram Pages: 1 -->
<svg width="916pt" height="1014pt"
 viewBox="0.00 0.00 915.52 1014.00" xmlns="http://www.w3.org/2000/svg" xmlns:xlink="http://www.w3.org/1999/xlink">
<g id="graph0" class="graph" transform="scale(1 1) rotate(0) translate(4 1010)">
<title>models_diagram</title>
<polygon fill="transparent" stroke="transparent" points="-4,4 -4,-1010 911.519,-1010 911.519,4 -4,4"/>
<!-- Item -->
<g id="node1" class="node">
<title>Item</title>
<path fill="none" stroke="#000000" d="M590.519,-752.5C590.519,-752.5 826.519,-752.5 826.519,-752.5 832.519,-752.5 838.519,-758.5 838.519,-764.5 838.519,-764.5 838.519,-921.5 838.519,-921.5 838.519,-927.5 832.519,-933.5 826.519,-933.5 826.519,-933.5 590.519,-933.5 590.519,-933.5 584.519,-933.5 578.519,-927.5 578.519,-921.5 578.519,-921.5 578.519,-764.5 578.519,-764.5 578.519,-758.5 584.519,-752.5 590.519,-752.5"/>
<text text-anchor="middle" x="708.519" y="-918.3" font-family="Times,serif" font-size="14.00" fill="#000000">Item</text>
<polyline fill="none" stroke="#000000" points="578.519,-910.5 838.519,-910.5 "/>
<text text-anchor="start" x="586.519" y="-895.3" font-family="Times,serif" font-size="14.00" fill="#000000">created_at :timestamp(6) without time zone</text>
<text text-anchor="start" x="586.519" y="-880.3" font-family="Times,serif" font-size="14.00" fill="#000000">description :character varying</text>
<text text-anchor="start" x="586.519" y="-865.3" font-family="Times,serif" font-size="14.00" fill="#000000">id :bigint</text>
<text text-anchor="start" x="586.519" y="-850.3" font-family="Times,serif" font-size="14.00" fill="#000000">image :character varying</text>
<text text-anchor="start" x="586.519" y="-835.3" font-family="Times,serif" font-size="14.00" fill="#000000">name :character varying</text>
<text text-anchor="start" x="586.519" y="-820.3" font-family="Times,serif" font-size="14.00" fill="#000000">price :double precision</text>
<text text-anchor="start" x="586.519" y="-805.3" font-family="Times,serif" font-size="14.00" fill="#000000">real :boolean</text>
<text text-anchor="start" x="586.519" y="-790.3" font-family="Times,serif" font-size="14.00" fill="#000000">updated_at :timestamp(6) without time zone</text>
<text text-anchor="start" x="586.519" y="-775.3" font-family="Times,serif" font-size="14.00" fill="#000000">votes_count :integer</text>
<text text-anchor="start" x="586.519" y="-760.3" font-family="Times,serif" font-size="14.00" fill="#000000">weight :double precision</text>
</g>
<!-- Order -->
<g id="node2" class="node">
<title>Order</title>
<path fill="none" stroke="#000000" d="M356.519,-609.5C356.519,-609.5 592.519,-609.5 592.519,-609.5 598.519,-609.5 604.519,-615.5 604.519,-621.5 604.519,-621.5 604.519,-703.5 604.519,-703.5 604.519,-709.5 598.519,-715.5 592.519,-715.5 592.519,-715.5 356.519,-715.5 356.519,-715.5 350.519,-715.5 344.519,-709.5 344.519,-703.5 344.519,-703.5 344.519,-621.5 344.519,-621.5 344.519,-615.5 350.519,-609.5 356.519,-609.5"/>
<text text-anchor="middle" x="474.519" y="-700.3" font-family="Times,serif" font-size="14.00" fill="#000000">Order</text>
<polyline fill="none" stroke="#000000" points="344.519,-692.5 604.519,-692.5 "/>
<text text-anchor="start" x="352.519" y="-677.3" font-family="Times,serif" font-size="14.00" fill="#000000">created_at :timestamp(6) without time zone</text>
<text text-anchor="start" x="352.519" y="-662.3" font-family="Times,serif" font-size="14.00" fill="#000000">id :bigint</text>
<text text-anchor="start" x="352.519" y="-647.3" font-family="Times,serif" font-size="14.00" fill="#000000">total :double precision</text>
<text text-anchor="start" x="352.519" y="-632.3" font-family="Times,serif" font-size="14.00" fill="#000000">updated_at :timestamp(6) without time zone</text>
<text text-anchor="start" x="352.519" y="-617.3" font-family="Times,serif" font-size="14.00" fill="#000000">user_id :integer</text>
</g>
<!-- Item&#45;&gt;Order -->
<g id="edge1" class="edge">
<title>Item&#45;&gt;Order</title>
<path fill="none" stroke="#799e79" d="M583.1005,-746.2562C572.2941,-737.9205 561.5839,-729.659 551.3413,-721.7582"/>
<polygon fill="#799e79" stroke="#799e79" points="583.2582,-746.3778 588.4278,-756.0487 587.2172,-749.4317 591.1763,-752.4856 591.1763,-752.4856 591.1763,-752.4856 587.2172,-749.4317 593.9247,-748.9225 583.2582,-746.3778 583.2582,-746.3778"/>
<polygon fill="#799e79" stroke="#799e79" points="551.1524,-721.6125 545.9828,-711.9416 547.1934,-718.5586 543.2343,-715.5048 543.2343,-715.5048 543.2343,-715.5048 547.1934,-718.5586 540.4858,-719.0679 551.1524,-721.6125 551.1524,-721.6125"/>
</g>
<!-- Cart -->
<g id="node6" class="node">
<title>Cart</title>
<path fill="none" stroke="#000000" d="M492.519,-181C492.519,-181 728.519,-181 728.519,-181 734.519,-181 740.519,-187 740.519,-193 740.519,-193 740.519,-260 740.519,-260 740.519,-266 734.519,-272 728.519,-272 728.519,-272 492.519,-272 492.519,-272 486.519,-272 480.519,-266 480.519,-260 480.519,-260 480.519,-193 480.519,-193 480.519,-187 486.519,-181 492.519,-181"/>
<text text-anchor="middle" x="610.519" y="-256.8" font-family="Times,serif" font-size="14.00" fill="#000000">Cart</text>
<polyline fill="none" stroke="#000000" points="480.519,-249 740.519,-249 "/>
<text text-anchor="start" x="488.519" y="-233.8" font-family="Times,serif" font-size="14.00" fill="#000000">created_at :timestamp(6) without time zone</text>
<text text-anchor="start" x="488.519" y="-218.8" font-family="Times,serif" font-size="14.00" fill="#000000">id :bigint</text>
<text text-anchor="start" x="488.519" y="-203.8" font-family="Times,serif" font-size="14.00" fill="#000000">updated_at :timestamp(6) without time zone</text>
<text text-anchor="start" x="488.519" y="-188.8" font-family="Times,serif" font-size="14.00" fill="#000000">user_id :integer</text>
</g>
<!-- Item&#45;&gt;Cart -->
<g id="edge3" class="edge">
<title>Item&#45;&gt;Cart</title>
<path fill="none" stroke="#8e53c2" d="M703.0577,-742.0023C695.8559,-637.8654 679.9454,-471.3512 646.519,-331 642.6534,-314.7688 637.2604,-297.5077 631.8237,-281.7889"/>
<polygon fill="#8e53c2" stroke="#8e53c2" points="703.0722,-742.2176 699.2588,-752.499 703.4104,-747.2061 703.7485,-752.1947 703.7485,-752.1947 703.7485,-752.1947 703.4104,-747.2061 708.2382,-751.8903 703.0722,-742.2176 703.0722,-742.2176"/>
<polygon fill="#8e53c2" stroke="#8e53c2" points="631.7759,-281.6534 632.6894,-270.7256 630.1111,-276.9387 628.4462,-272.224 628.4462,-272.224 628.4462,-272.224 630.1111,-276.9387 624.203,-273.7224 631.7759,-281.6534 631.7759,-281.6534"/>
</g>
<!-- Comment -->
<g id="node7" class="node">
<title>Comment</title>
<path fill="none" stroke="#000000" d="M214.519,-158.5C214.519,-158.5 450.519,-158.5 450.519,-158.5 456.519,-158.5 462.519,-164.5 462.519,-170.5 462.519,-170.5 462.519,-282.5 462.519,-282.5 462.519,-288.5 456.519,-294.5 450.519,-294.5 450.519,-294.5 214.519,-294.5 214.519,-294.5 208.519,-294.5 202.519,-288.5 202.519,-282.5 202.519,-282.5 202.519,-170.5 202.519,-170.5 202.519,-164.5 208.519,-158.5 214.519,-158.5"/>
<text text-anchor="middle" x="332.519" y="-279.3" font-family="Times,serif" font-size="14.00" fill="#000000">Comment</text>
<polyline fill="none" stroke="#000000" points="202.519,-271.5 462.519,-271.5 "/>
<text text-anchor="start" x="210.519" y="-256.3" font-family="Times,serif" font-size="14.00" fill="#000000">body :text</text>
<text text-anchor="start" x="210.519" y="-241.3" font-family="Times,serif" font-size="14.00" fill="#000000">commentable_id :integer</text>
<text text-anchor="start" x="210.519" y="-226.3" font-family="Times,serif" font-size="14.00" fill="#000000">commentable_type :character varying</text>
<text text-anchor="start" x="210.519" y="-211.3" font-family="Times,serif" font-size="14.00" fill="#000000">created_at :timestamp(6) without time zone</text>
<text text-anchor="start" x="210.519" y="-196.3" font-family="Times,serif" font-size="14.00" fill="#000000">id :bigint</text>
<text text-anchor="start" x="210.519" y="-181.3" font-family="Times,serif" font-size="14.00" fill="#000000">updated_at :timestamp(6) without time zone</text>
<text text-anchor="start" x="210.519" y="-166.3" font-family="Times,serif" font-size="14.00" fill="#000000">user_id :integer</text>
</g>
<!-- Item&#45;&gt;Comment -->
<g id="edge4" class="edge">
<title>Item&#45;&gt;Comment</title>
<path fill="none" stroke="#fac090" d="M684.0782,-744.1173C647.6626,-597.4912 582.6534,-338.7222 575.519,-331 544.3364,-297.248 519.7914,-311.7745 472.3549,-294.9917"/>
<ellipse fill="none" stroke="#fac090" cx="685.1485" cy="-748.4285" rx="4" ry="4"/>
<polygon fill="#fac090" stroke="#fac090" points="472.2182,-294.939 464.5117,-287.1377 467.5542,-293.1372 462.8901,-291.3354 462.8901,-291.3354 462.8901,-291.3354 467.5542,-293.1372 461.2685,-295.5331 472.2182,-294.939 472.2182,-294.939"/>
</g>
<!-- Position -->
<g id="node8" class="node">
<title>Position</title>
<path fill="none" stroke="#000000" d="M659.519,-.5C659.519,-.5 895.519,-.5 895.519,-.5 901.519,-.5 907.519,-6.5 907.519,-12.5 907.519,-12.5 907.519,-109.5 907.519,-109.5 907.519,-115.5 901.519,-121.5 895.519,-121.5 895.519,-121.5 659.519,-121.5 659.519,-121.5 653.519,-121.5 647.519,-115.5 647.519,-109.5 647.519,-109.5 647.519,-12.5 647.519,-12.5 647.519,-6.5 653.519,-.5 659.519,-.5"/>
<text text-anchor="middle" x="777.519" y="-106.3" font-family="Times,serif" font-size="14.00" fill="#000000">Position</text>
<polyline fill="none" stroke="#000000" points="647.519,-98.5 907.519,-98.5 "/>
<text text-anchor="start" x="655.519" y="-83.3" font-family="Times,serif" font-size="14.00" fill="#000000">cart_id :integer</text>
<text text-anchor="start" x="655.519" y="-68.3" font-family="Times,serif" font-size="14.00" fill="#000000">created_at :timestamp(6) without time zone</text>
<text text-anchor="start" x="655.519" y="-53.3" font-family="Times,serif" font-size="14.00" fill="#000000">id :bigint</text>
<text text-anchor="start" x="655.519" y="-38.3" font-family="Times,serif" font-size="14.00" fill="#000000">item_id :integer</text>
<text text-anchor="start" x="655.519" y="-23.3" font-family="Times,serif" font-size="14.00" fill="#000000">quantity :integer</text>
<text text-anchor="start" x="655.519" y="-8.3" font-family="Times,serif" font-size="14.00" fill="#000000">updated_at :timestamp(6) without time zone</text>
</g>
<!-- Item&#45;&gt;Position -->
<g id="edge2" class="edge">
<title>Item&#45;&gt;Position</title>
<path fill="none" stroke="#5a3e2e" d="M712.584,-743.9699C723.7641,-583.7782 751.5011,-271.6634 767.1929,-131.7847"/>
<ellipse fill="none" stroke="#5a3e2e" cx="712.2946" cy="-748.1573" rx="4" ry="4"/>
<polygon fill="#5a3e2e" stroke="#5a3e2e" points="767.2197,-131.5482 772.8192,-122.1197 767.7838,-126.5801 768.3479,-121.612 768.3479,-121.612 768.3479,-121.612 767.7838,-126.5801 763.8766,-121.1043 767.2197,-131.5482 767.2197,-131.5482"/>
</g>
<!-- User -->
<g id="node4" class="node">
<title>User</title>
<path fill="none" stroke="#000000" d="M265.019,-331.5C265.019,-331.5 554.019,-331.5 554.019,-331.5 560.019,-331.5 566.019,-337.5 566.019,-343.5 566.019,-343.5 566.019,-560.5 566.019,-560.5 566.019,-566.5 560.019,-572.5 554.019,-572.5 554.019,-572.5 265.019,-572.5 265.019,-572.5 259.019,-572.5 253.019,-566.5 253.019,-560.5 253.019,-560.5 253.019,-343.5 253.019,-343.5 253.019,-337.5 259.019,-331.5 265.019,-331.5"/>
<text text-anchor="middle" x="409.519" y="-557.3" font-family="Times,serif" font-size="14.00" fill="#000000">User</text>
<polyline fill="none" stroke="#000000" points="253.019,-549.5 566.019,-549.5 "/>
<text text-anchor="start" x="261.019" y="-534.3" font-family="Times,serif" font-size="14.00" fill="#000000">created_at :timestamp(6) without time zone</text>
<text text-anchor="start" x="261.019" y="-519.3" font-family="Times,serif" font-size="14.00" fill="#000000">current_sign_in_at :timestamp without time zone</text>
<text text-anchor="start" x="261.019" y="-504.3" font-family="Times,serif" font-size="14.00" fill="#000000">current_sign_in_ip :inet</text>
<text text-anchor="start" x="261.019" y="-489.3" font-family="Times,serif" font-size="14.00" fill="#000000">email :character varying</text>
<text text-anchor="start" x="261.019" y="-474.3" font-family="Times,serif" font-size="14.00" fill="#000000">encrypted_password :character varying</text>
<text text-anchor="start" x="261.019" y="-459.3" font-family="Times,serif" font-size="14.00" fill="#000000">id :bigint</text>
<text text-anchor="start" x="261.019" y="-444.3" font-family="Times,serif" font-size="14.00" fill="#000000">last_sign_in_at :timestamp without time zone</text>
<text text-anchor="start" x="261.019" y="-429.3" font-family="Times,serif" font-size="14.00" fill="#000000">last_sign_in_ip :inet</text>
<text text-anchor="start" x="261.019" y="-414.3" font-family="Times,serif" font-size="14.00" fill="#000000">login :character varying</text>
<text text-anchor="start" x="261.019" y="-399.3" font-family="Times,serif" font-size="14.00" fill="#000000">remember_created_at :timestamp without time zone</text>
<text text-anchor="start" x="261.019" y="-384.3" font-family="Times,serif" font-size="14.00" fill="#000000">reset_password_sent_at :timestamp without time zone</text>
<text text-anchor="start" x="261.019" y="-369.3" font-family="Times,serif" font-size="14.00" fill="#000000">reset_password_token :character varying</text>
<text text-anchor="start" x="261.019" y="-354.3" font-family="Times,serif" font-size="14.00" fill="#000000">sign_in_count :integer</text>
<text text-anchor="start" x="261.019" y="-339.3" font-family="Times,serif" font-size="14.00" fill="#000000">updated_at :timestamp(6) without time zone</text>
</g>
<!-- Order&#45;&gt;User -->
<g id="edge6" class="edge">
<title>Order&#45;&gt;User</title>
<path fill="none" stroke="#e0f94f" d="M452.1644,-609.382C449.2267,-600.7954 446.1749,-591.5896 443.1118,-582.0978"/>
<polygon fill="#e0f94f" stroke="#e0f94f" points="446.4293,-580.9811 440.0487,-572.523 439.7622,-583.114 446.4293,-580.9811"/>
</g>
<!-- BlogPost -->
<g id="node3" class="node">
<title>BlogPost</title>
<path fill="none" stroke="#000000" d="M40.519,-609.5C40.519,-609.5 276.519,-609.5 276.519,-609.5 282.519,-609.5 288.519,-615.5 288.519,-621.5 288.519,-621.5 288.519,-703.5 288.519,-703.5 288.519,-709.5 282.519,-715.5 276.519,-715.5 276.519,-715.5 40.519,-715.5 40.519,-715.5 34.519,-715.5 28.519,-709.5 28.519,-703.5 28.519,-703.5 28.519,-621.5 28.519,-621.5 28.519,-615.5 34.519,-609.5 40.519,-609.5"/>
<text text-anchor="middle" x="158.519" y="-700.3" font-family="Times,serif" font-size="14.00" fill="#000000">BlogPost</text>
<polyline fill="none" stroke="#000000" points="28.519,-692.5 288.519,-692.5 "/>
<text text-anchor="start" x="36.519" y="-677.3" font-family="Times,serif" font-size="14.00" fill="#000000">body :text</text>
<text text-anchor="start" x="36.519" y="-662.3" font-family="Times,serif" font-size="14.00" fill="#000000">created_at :timestamp(6) without time zone</text>
<text text-anchor="start" x="36.519" y="-647.3" font-family="Times,serif" font-size="14.00" fill="#000000">id :bigint</text>
<text text-anchor="start" x="36.519" y="-632.3" font-family="Times,serif" font-size="14.00" fill="#000000">title :character varying</text>
<text text-anchor="start" x="36.519" y="-617.3" font-family="Times,serif" font-size="14.00" fill="#000000">updated_at :timestamp(6) without time zone</text>
</g>
<!-- BlogPost&#45;&gt;Comment -->
<g id="edge8" class="edge">
<title>BlogPost&#45;&gt;Comment</title>
<path fill="none" stroke="#9f835a" d="M165.7755,-601.1604C175.7997,-532.2841 198.0634,-418.6897 243.519,-331 248.4731,-321.443 254.4498,-312.0051 260.9342,-302.9418"/>
<ellipse fill="none" stroke="#9f835a" cx="165.1763" cy="-605.3734" rx="4" ry="4"/>
<polygon fill="#9f835a" stroke="#9f835a" points="261.0643,-302.7661 270.633,-297.4097 264.0407,-298.7485 267.0172,-294.7309 267.0172,-294.7309 267.0172,-294.7309 264.0407,-298.7485 263.4013,-292.0522 261.0643,-302.7661 261.0643,-302.7661"/>
</g>
<!-- User&#45;&gt;Order -->
<g id="edge11" class="edge">
<title>User&#45;&gt;Order</title>
<path fill="none" stroke="#fe10d7" d="M455.734,-580.2776C457.6761,-586.8398 459.5428,-593.2764 461.3006,-599.4784"/>
<ellipse fill="none" stroke="#fe10d7" cx="454.5647" cy="-576.3562" rx="4" ry="4"/>
<polygon fill="#fe10d7" stroke="#fe10d7" points="461.3768,-599.7512 459.7353,-610.5935 462.723,-604.5666 464.0692,-609.382 464.0692,-609.382 464.0692,-609.382 462.723,-604.5666 468.403,-608.1704 461.3768,-599.7512 461.3768,-599.7512"/>
</g>
<!-- User&#45;&gt;Cart -->
<g id="edge10" class="edge">
<title>User&#45;&gt;Cart</title>
<path fill="none" stroke="#5f268a" d="M516.0822,-324.9296C530.8692,-308.4662 545.4818,-292.4169 558.6412,-278.2164"/>
<ellipse fill="none" stroke="#5f268a" cx="513.0154" cy="-328.3499" rx="4" ry="4"/>
<ellipse fill="#5f268a" stroke="#5f268a" cx="561.4651" cy="-275.1779" rx="4" ry="4"/>
</g>
<!-- User&#45;&gt;Comment -->
<g id="edge12" class="edge">
<title>User&#45;&gt;Comment</title>
<path fill="none" stroke="#0475d7" d="M359.0141,-323.6923C356.8329,-317.1626 354.7067,-310.7038 352.6661,-304.4059"/>
<ellipse fill="none" stroke="#0475d7" cx="360.3052" cy="-327.5362" rx="4" ry="4"/>
<polygon fill="#0475d7" stroke="#0475d7" points="352.5922,-304.1756 353.8188,-293.2785 351.0633,-299.4151 349.5343,-294.6545 349.5343,-294.6545 349.5343,-294.6545 351.0633,-299.4151 345.2499,-296.0306 352.5922,-304.1756 352.5922,-304.1756"/>
</g>
<!-- ApplicationRecord -->
<g id="node5" class="node">
<title>ApplicationRecord</title>
<ellipse fill="none" stroke="#000000" cx="474.519" cy="-988" rx="77.1866" ry="18"/>
<text text-anchor="middle" x="474.519" y="-984.3" font-family="Times,serif" font-size="14.00" fill="#000000">ApplicationRecord</text>
</g>
<!-- ApplicationRecord&#45;&gt;Item -->
<g id="edge5" class="edge">
<title>ApplicationRecord&#45;&gt;Item</title>
<path fill="none" stroke="#000000" d="M502.9951,-971.143C520.7505,-960.5758 544.0387,-946.613 564.519,-934 569.0516,-931.2085 573.6588,-928.3597 578.3076,-925.4755"/>
</g>
<!-- ApplicationRecord&#45;&gt;Order -->
<g id="edge7" class="edge">
<title>ApplicationRecord&#45;&gt;Order</title>
<path fill="none" stroke="#000000" d="M474.519,-969.5671C474.519,-921.3534 474.519,-790.1109 474.519,-715.7502"/>
</g>
<!-- ApplicationRecord&#45;&gt;BlogPost -->
<g id="edge9" class="edge">
<title>ApplicationRecord&#45;&gt;BlogPost</title>
<path fill="none" stroke="#000000" d="M406.609,-979.1698C372.3181,-971.8218 331.8787,-958.4134 302.519,-934 233.2897,-876.4339 192.7589,-776.789 173.1731,-715.5538"/>
</g>
<!-- ApplicationRecord&#45;&gt;User -->
<g id="edge13" class="edge">
<title>ApplicationRecord&#45;&gt;User</title>
<path fill="none" stroke="#000000" d="M461.4823,-970.0802C431.9271,-928.2094 360.4643,-819.6323 335.519,-716 324.3898,-669.765 325.1304,-655.407 335.519,-609 338.2179,-596.9439 341.9504,-584.7225 346.3162,-572.6979"/>
</g>
<!-- ApplicationRecord&#45;&gt;Cart -->
<g id="edge16" class="edge">
<title>ApplicationRecord&#45;&gt;Cart</title>
<path fill="none" stroke="#000000" d="M480.534,-969.7733C496.8217,-921.0386 542.3788,-788.9216 569.519,-752 584.4841,-731.6415 602.6989,-738.833 613.519,-716 650.2758,-638.4343 627.1579,-378.5047 615.7696,-272.2981"/>
</g>
<!-- ApplicationRecord&#45;&gt;Comment -->
<g id="edge19" class="edge">
<title>ApplicationRecord&#45;&gt;Comment</title>
<path fill="none" stroke="#000000" d="M403.4186,-980.8492C329.172,-972.3388 218.594,-956.4074 182.519,-934 79.7518,-870.1677 57.6913,-830.7978 19.519,-716 -38.3236,-542.0461 42.8683,-465.4169 167.519,-331 179.7388,-317.8229 193.971,-305.6228 208.8586,-294.5601"/>
</g>
<!-- ApplicationRecord&#45;&gt;Position -->
<g id="edge22" class="edge">
<title>ApplicationRecord&#45;&gt;Position</title>
<path fill="none" stroke="#000000" d="M547.8966,-982.289C650.7266,-973.5569 827.4543,-955.6053 847.519,-934 929.8336,-845.3655 866.519,-783.4618 866.519,-662.5 866.519,-662.5 866.519,-662.5 866.519,-452 866.519,-332.6047 826.5762,-197.7015 800.2078,-121.6526"/>
</g>
<!-- Cart&#45;&gt;User -->
<g id="edge14" class="edge">
<title>Cart&#45;&gt;User</title>
<path fill="none" stroke="#2b7dd5" d="M575.2949,-272.2479C562.3798,-287.4331 546.9556,-305.1627 530.7858,-323.4582"/>
<polygon fill="#2b7dd5" stroke="#2b7dd5" points="527.8257,-321.5215 523.8154,-331.3281 533.0659,-326.1628 527.8257,-321.5215"/>
</g>
<!-- Cart&#45;&gt;Position -->
<g id="edge15" class="edge">
<title>Cart&#45;&gt;Position</title>
<path fill="none" stroke="#b64571" d="M656.4387,-174.7391C670.7215,-160.1554 686.8388,-144.0708 702.5529,-128.7027"/>
<ellipse fill="none" stroke="#b64571" cx="653.2809" cy="-177.9754" rx="4" ry="4"/>
<polygon fill="#b64571" stroke="#b64571" points="702.5758,-128.6804 712.8776,-124.9224 706.1561,-125.1902 709.7365,-121.7001 709.7365,-121.7001 709.7365,-121.7001 706.1561,-125.1902 706.5953,-118.4778 702.5758,-128.6804 702.5758,-128.6804"/>
</g>
<!-- Comment&#45;&gt;User -->
<g id="edge17" class="edge">
<title>Comment&#45;&gt;User</title>
<path fill="none" stroke="#6660c1" d="M362.0483,-294.6545C365.2084,-303.3186 368.4496,-312.4015 371.6843,-321.6462"/>
<polygon fill="#6660c1" stroke="#6660c1" points="368.4602,-323.0313 375.0491,-331.3281 375.0723,-320.7333 368.4602,-323.0313"/>
</g>
<!-- Commentable -->
<g id="node9" class="node">
<title>Commentable</title>
<ellipse fill="none" stroke="#000000" cx="332.519" cy="-61" rx="61.1893" ry="18"/>
<text text-anchor="middle" x="332.519" y="-57.3" font-family="Times,serif" font-size="14.00" fill="#000000">Commentable</text>
</g>
<!-- Comment&#45;&gt;Commentable -->
<g id="edge18" class="edge">
<title>Comment&#45;&gt;Commentable</title>
<path fill="none" stroke="#6f6e28" d="M332.519,-158.2293C332.519,-134.0005 332.519,-108.0624 332.519,-89.0753"/>
<polygon fill="#6f6e28" stroke="#6f6e28" points="336.0191,-89.0314 332.519,-79.0314 329.0191,-89.0314 336.0191,-89.0314"/>
</g>
<!-- Position&#45;&gt;Item -->
<g id="edge20" class="edge">
<title>Position&#45;&gt;Item</title>
<path fill="none" stroke="#2c484e" d="M775.9939,-121.612C767.7687,-255.4133 739.6711,-577.1998 722.1392,-742.0057"/>
<polygon fill="#2c484e" stroke="#2c484e" points="718.6379,-741.8317 721.0522,-752.1478 725.598,-742.5778 718.6379,-741.8317"/>
</g>
<!-- Position&#45;&gt;Cart -->
<g id="edge21" class="edge">
<title>Position&#45;&gt;Cart</title>
<path fill="none" stroke="#35154b" d="M722.8011,-121.7001C705.888,-138.8033 687.1965,-157.2622 669.9803,-173.8521"/>
<polygon fill="#35154b" stroke="#35154b" points="667.4927,-171.3885 662.7018,-180.8383 672.3399,-176.4387 667.4927,-171.3885"/>
</g>
</g>
</svg>
