<?xml version="1.0" encoding="UTF-8" standalone="no"?>
<!DOCTYPE svg PUBLIC "-//W3C//DTD SVG 1.1//EN"
 "http://www.w3.org/Graphics/SVG/1.1/DTD/svg11.dtd">
<!-- Generated by graphviz version 2.40.1 (20161225.0304)
 -->
<!-- Title: models_diagram Pages: 1 -->
<svg width="425pt" height="404pt"
 viewBox="0.00 0.00 424.71 404.00" xmlns="http://www.w3.org/2000/svg" xmlns:xlink="http://www.w3.org/1999/xlink">
<g id="graph0" class="graph" transform="scale(1 1) rotate(0) translate(4 400)">
<title>models_diagram</title>
<polygon fill="transparent" stroke="transparent" points="-4,4 -4,-400 420.7127,-400 420.7127,4 -4,4"/>
<!-- Item -->
<g id="node1" class="node">
<title>Item</title>
<ellipse fill="none" stroke="#000000" cx="312.7127" cy="-306" rx="27.0966" ry="18"/>
<text text-anchor="middle" x="312.7127" y="-302.3" font-family="Times,serif" font-size="14.00" fill="#000000">Item</text>
</g>
<!-- Order -->
<g id="node2" class="node">
<title>Order</title>
<ellipse fill="none" stroke="#000000" cx="187.7127" cy="-234" rx="31.3957" ry="18"/>
<text text-anchor="middle" x="187.7127" y="-230.3" font-family="Times,serif" font-size="14.00" fill="#000000">Order</text>
</g>
<!-- Item&#45;&gt;Order -->
<g id="edge1" class="edge">
<title>Item&#45;&gt;Order</title>
<path fill="none" stroke="#942ed3" d="M283.3113,-289.0648C263.9683,-277.9232 238.6804,-263.3574 218.9719,-252.0053"/>
<polygon fill="#942ed3" stroke="#942ed3" points="283.4062,-289.1194 289.8255,-298.0101 287.7389,-291.615 292.0715,-294.1107 292.0715,-294.1107 292.0715,-294.1107 287.7389,-291.615 294.3176,-290.2113 283.4062,-289.1194 283.4062,-289.1194"/>
<polygon fill="#942ed3" stroke="#942ed3" points="218.7391,-251.8712 212.3198,-242.9805 214.4064,-249.3756 210.0738,-246.8799 210.0738,-246.8799 210.0738,-246.8799 214.4064,-249.3756 207.8277,-250.7793 218.7391,-251.8712 218.7391,-251.8712"/>
</g>
<!-- Cart -->
<g id="node6" class="node">
<title>Cart</title>
<ellipse fill="none" stroke="#000000" cx="293.7127" cy="-90" rx="27" ry="18"/>
<text text-anchor="middle" x="293.7127" y="-86.3" font-family="Times,serif" font-size="14.00" fill="#000000">Cart</text>
</g>
<!-- Item&#45;&gt;Cart -->
<g id="edge3" class="edge">
<title>Item&#45;&gt;Cart</title>
<path fill="none" stroke="#f458a0" d="M310.2243,-277.7103C306.5851,-236.338 299.8492,-159.7616 296.2068,-118.3533"/>
<polygon fill="#f458a0" stroke="#f458a0" points="310.2492,-277.9939 306.6428,-288.3498 310.6873,-282.9747 311.1255,-287.9555 311.1255,-287.9555 311.1255,-287.9555 310.6873,-282.9747 315.6082,-287.5611 310.2492,-277.9939 310.2492,-277.9939"/>
<polygon fill="#f458a0" stroke="#f458a0" points="296.1852,-118.1066 299.7915,-107.7507 295.747,-113.1258 295.3088,-108.1451 295.3088,-108.1451 295.3088,-108.1451 295.747,-113.1258 290.8261,-108.5394 296.1852,-118.1066 296.1852,-118.1066"/>
</g>
<!-- Comment -->
<g id="node7" class="node">
<title>Comment</title>
<ellipse fill="none" stroke="#000000" cx="187.7127" cy="-90" rx="46.2923" ry="18"/>
<text text-anchor="middle" x="187.7127" y="-86.3" font-family="Times,serif" font-size="14.00" fill="#000000">Comment</text>
</g>
<!-- Item&#45;&gt;Comment -->
<g id="edge4" class="edge">
<title>Item&#45;&gt;Comment</title>
<path fill="none" stroke="#9aba12" d="M300.0943,-281.5052C283.3947,-249.4557 252.676,-191.7547 223.7127,-144 218.1035,-134.7514 211.6387,-124.8455 205.7488,-116.0759"/>
<ellipse fill="none" stroke="#9aba12" cx="301.9882" cy="-285.1508" rx="4" ry="4"/>
<polygon fill="#9aba12" stroke="#9aba12" points="205.7162,-116.0278 203.8278,-105.2257 202.9098,-111.8896 200.1035,-107.7514 200.1035,-107.7514 200.1035,-107.7514 202.9098,-111.8896 196.3791,-110.2771 205.7162,-116.0278 205.7162,-116.0278"/>
</g>
<!-- Position -->
<g id="node8" class="node">
<title>Position</title>
<ellipse fill="none" stroke="#000000" cx="369.7127" cy="-18" rx="39.7935" ry="18"/>
<text text-anchor="middle" x="369.7127" y="-14.3" font-family="Times,serif" font-size="14.00" fill="#000000">Position</text>
</g>
<!-- Item&#45;&gt;Position -->
<g id="edge2" class="edge">
<title>Item&#45;&gt;Position</title>
<path fill="none" stroke="#7b8b19" d="M313.8175,-279.738C321.0466,-225.4848 345.5571,-101.4711 360.0022,-45.8698"/>
<ellipse fill="none" stroke="#7b8b19" cx="313.2855" cy="-284.0149" rx="4" ry="4"/>
<polygon fill="#7b8b19" stroke="#7b8b19" points="360.0577,-45.6637 367.0071,-37.181 361.3601,-40.8363 362.6624,-36.0089 362.6624,-36.0089 362.6624,-36.0089 361.3601,-40.8363 358.3177,-34.8368 360.0577,-45.6637 360.0577,-45.6637"/>
</g>
<!-- User -->
<g id="node4" class="node">
<title>User</title>
<ellipse fill="none" stroke="#000000" cx="187.7127" cy="-162" rx="27.0966" ry="18"/>
<text text-anchor="middle" x="187.7127" y="-158.3" font-family="Times,serif" font-size="14.00" fill="#000000">User</text>
</g>
<!-- Order&#45;&gt;User -->
<g id="edge6" class="edge">
<title>Order&#45;&gt;User</title>
<path fill="none" stroke="#02b765" d="M181.797,-216.2022C180.9926,-208.1807 180.7699,-198.5231 181.129,-189.5957"/>
<polygon fill="#02b765" stroke="#02b765" points="184.6224,-189.8099 181.8177,-179.593 177.6389,-189.3289 184.6224,-189.8099"/>
</g>
<!-- BlogPost -->
<g id="node3" class="node">
<title>BlogPost</title>
<ellipse fill="none" stroke="#000000" cx="57.7127" cy="-234" rx="42.7926" ry="18"/>
<text text-anchor="middle" x="57.7127" y="-230.3" font-family="Times,serif" font-size="14.00" fill="#000000">BlogPost</text>
</g>
<!-- BlogPost&#45;&gt;Comment -->
<g id="edge8" class="edge">
<title>BlogPost&#45;&gt;Comment</title>
<path fill="none" stroke="#a1a9f3" d="M78.7546,-210.6921C102.5943,-184.285 141.2792,-141.4341 165.5663,-114.5315"/>
<ellipse fill="none" stroke="#a1a9f3" cx="75.8164" cy="-213.9467" rx="4" ry="4"/>
<polygon fill="#a1a9f3" stroke="#a1a9f3" points="165.6085,-114.4846 175.6498,-110.0774 168.9591,-110.7733 172.3096,-107.0619 172.3096,-107.0619 172.3096,-107.0619 168.9591,-110.7733 168.9694,-104.0465 165.6085,-114.4846 165.6085,-114.4846"/>
</g>
<!-- User&#45;&gt;Order -->
<g id="edge11" class="edge">
<title>User&#45;&gt;Order</title>
<path fill="none" stroke="#8afd44" d="M194.2215,-187.913C194.5121,-193.8427 194.5402,-200.1696 194.3056,-206.1759"/>
<ellipse fill="none" stroke="#8afd44" cx="193.9021" cy="-183.5822" rx="4" ry="4"/>
<polygon fill="#8afd44" stroke="#8afd44" points="194.3024,-206.225 189.1387,-215.899 193.9654,-211.2136 193.6285,-216.2022 193.6285,-216.2022 193.6285,-216.2022 193.9654,-211.2136 198.1182,-216.5055 194.3024,-206.225 194.3024,-206.225"/>
</g>
<!-- User&#45;&gt;Cart -->
<g id="edge10" class="edge">
<title>User&#45;&gt;Cart</title>
<path fill="none" stroke="#fbbb57" d="M210.9857,-142.0381C227.0137,-130.4874 248.2466,-116.1679 265.2682,-105.4757"/>
<ellipse fill="none" stroke="#fbbb57" cx="207.313" cy="-144.7216" rx="4" ry="4"/>
<ellipse fill="#fbbb57" stroke="#fbbb57" cx="268.8773" cy="-103.2403" rx="4" ry="4"/>
</g>
<!-- User&#45;&gt;Comment -->
<g id="edge12" class="edge">
<title>User&#45;&gt;Comment</title>
<path fill="none" stroke="#def474" d="M181.2019,-136.0442C180.9194,-130.2543 180.8872,-124.0876 181.1052,-118.2116"/>
<ellipse fill="none" stroke="#def474" cx="181.5059" cy="-140.2128" rx="4" ry="4"/>
<polygon fill="#def474" stroke="#def474" points="181.1142,-118.0717 186.2581,-108.3872 181.441,-113.0824 181.7677,-108.0931 181.7677,-108.0931 181.7677,-108.0931 181.441,-113.0824 177.2773,-107.799 181.1142,-118.0717 181.1142,-118.0717"/>
</g>
<!-- ApplicationRecord -->
<g id="node5" class="node">
<title>ApplicationRecord</title>
<ellipse fill="none" stroke="#000000" cx="187.7127" cy="-378" rx="77.1866" ry="18"/>
<text text-anchor="middle" x="187.7127" y="-374.3" font-family="Times,serif" font-size="14.00" fill="#000000">ApplicationRecord</text>
</g>
<!-- ApplicationRecord&#45;&gt;Item -->
<g id="edge5" class="edge">
<title>ApplicationRecord&#45;&gt;Item</title>
<path fill="none" stroke="#000000" d="M216.7044,-361.3008C239.7834,-348.0073 271.5169,-329.7288 292.0715,-317.8893"/>
</g>
<!-- ApplicationRecord&#45;&gt;Order -->
<g id="edge7" class="edge">
<title>ApplicationRecord&#45;&gt;Order</title>
<path fill="none" stroke="#000000" d="M187.7127,-359.7623C187.7127,-332.0633 187.7127,-279.7005 187.7127,-252.0896"/>
</g>
<!-- ApplicationRecord&#45;&gt;BlogPost -->
<g id="edge9" class="edge">
<title>ApplicationRecord&#45;&gt;BlogPost</title>
<path fill="none" stroke="#000000" d="M160.1213,-361.1509C145.5695,-351.4297 128.0263,-338.313 114.7127,-324 94.0543,-301.7907 76.4716,-271.101 66.5022,-251.9112"/>
</g>
<!-- ApplicationRecord&#45;&gt;User -->
<g id="edge13" class="edge">
<title>ApplicationRecord&#45;&gt;User</title>
<path fill="none" stroke="#000000" d="M176.5882,-359.7641C159.5932,-329.5017 130.8255,-267.1689 147.7127,-216 152.6124,-201.154 163.3422,-187.0546 172.4562,-176.9879"/>
</g>
<!-- ApplicationRecord&#45;&gt;Cart -->
<g id="edge16" class="edge">
<title>ApplicationRecord&#45;&gt;Cart</title>
<path fill="none" stroke="#000000" d="M194.3435,-359.9843C213.425,-308.1403 268.312,-159.0134 287.2198,-107.6412"/>
</g>
<!-- ApplicationRecord&#45;&gt;Comment -->
<g id="edge19" class="edge">
<title>ApplicationRecord&#45;&gt;Comment</title>
<path fill="none" stroke="#000000" d="M143.5416,-363.0498C98.2944,-344.9327 31.0962,-309.4784 5.7127,-252 -26.9269,-178.0908 90.4493,-124.2897 152.1586,-101.7337"/>
</g>
<!-- ApplicationRecord&#45;&gt;Position -->
<g id="edge22" class="edge">
<title>ApplicationRecord&#45;&gt;Position</title>
<path fill="none" stroke="#000000" d="M249.0805,-366.9106C316.9131,-350.7023 416.7127,-313.3691 416.7127,-234 416.7127,-234 416.7127,-234 416.7127,-162 416.7127,-114.4007 393.2178,-62.1252 379.4512,-35.5805"/>
</g>
<!-- Cart&#45;&gt;User -->
<g id="edge14" class="edge">
<title>Cart&#45;&gt;User</title>
<path fill="none" stroke="#b2e31b" d="M277.694,-104.6571C261.789,-116.4844 237.3703,-133.122 217.8915,-145.4316"/>
<polygon fill="#b2e31b" stroke="#b2e31b" points="215.982,-142.4975 209.3377,-150.75 219.6782,-148.4421 215.982,-142.4975"/>
</g>
<!-- Cart&#45;&gt;Position -->
<g id="edge15" class="edge">
<title>Cart&#45;&gt;Position</title>
<path fill="none" stroke="#e2c950" d="M310.9534,-67.7029C319.6438,-58.8888 330.3142,-48.7867 340.2143,-40.0017"/>
<ellipse fill="none" stroke="#e2c950" cx="307.9765" cy="-70.785" rx="4" ry="4"/>
<polygon fill="#e2c950" stroke="#e2c950" points="340.3895,-39.8495 350.8888,-36.6847 344.163,-36.569 347.9364,-33.2886 347.9364,-33.2886 347.9364,-33.2886 344.163,-36.569 344.984,-29.8925 340.3895,-39.8495 340.3895,-39.8495"/>
</g>
<!-- Comment&#45;&gt;User -->
<g id="edge17" class="edge">
<title>Comment&#45;&gt;User</title>
<path fill="none" stroke="#d3f4e9" d="M193.6578,-108.0931C194.4277,-115.9477 194.6453,-125.3282 194.3106,-134.0453"/>
<polygon fill="#d3f4e9" stroke="#d3f4e9" points="190.8065,-133.9901 193.6285,-144.2022 197.7908,-134.4593 190.8065,-133.9901"/>
</g>
<!-- Commentable -->
<g id="node9" class="node">
<title>Commentable</title>
<ellipse fill="none" stroke="#000000" cx="187.7127" cy="-18" rx="61.1893" ry="18"/>
<text text-anchor="middle" x="187.7127" y="-14.3" font-family="Times,serif" font-size="14.00" fill="#000000">Commentable</text>
</g>
<!-- Comment&#45;&gt;Commentable -->
<g id="edge18" class="edge">
<title>Comment&#45;&gt;Commentable</title>
<path fill="none" stroke="#217166" d="M187.7127,-71.8314C187.7127,-64.131 187.7127,-54.9743 187.7127,-46.4166"/>
<polygon fill="#217166" stroke="#217166" points="191.2128,-46.4132 187.7127,-36.4133 184.2128,-46.4133 191.2128,-46.4132"/>
</g>
<!-- Position&#45;&gt;Item -->
<g id="edge20" class="edge">
<title>Position&#45;&gt;Item</title>
<path fill="none" stroke="#996e53" d="M369.6256,-36.0873C364.0522,-84.974 337.559,-219.9846 322.3445,-278.4332"/>
<polygon fill="#996e53" stroke="#996e53" points="318.8763,-277.8508 319.6424,-288.4178 325.6332,-279.6794 318.8763,-277.8508"/>
</g>
<!-- Position&#45;&gt;Cart -->
<g id="edge21" class="edge">
<title>Position&#45;&gt;Cart</title>
<path fill="none" stroke="#a82649" d="M357.259,-35.3603C347.2132,-45.9145 333.0293,-59.4202 320.5278,-70.3634"/>
<polygon fill="#a82649" stroke="#a82649" points="317.9422,-67.9692 312.6159,-77.1278 322.4911,-73.2897 317.9422,-67.9692"/>
</g>
</g>
</svg>
